# xmcd
#
# Track frame offsets:
# 225
# 10449
# 22034
# 36970
# 56456
# 73310
# 85434
# 103027
# 124703
# 141275
# 158318
# 168064
#
# Disc length: 2476 seconds
#
#
# Revision: 0
# Processed by: cddbd v1.5.1PL0 Copyright (c) Steve Scherf et al.
# Submitted via: FreeRIP 2.942 
#
DISCID=9d09a90c
DTITLE=Mark Brine - New Blue Yodel
DYEAR=1996
DGENRE=Blues
TTITLE0=Shy Boy Always Dance With The Big girls
TTITLE1=When You Love Me
TTITLE2=Blues In My Mind
TTITLE3=Aggie
TTITLE4=Oh! Susanna
TTITLE5=New Blue Yodel
TTITLE6=When The Saints Go Marching In
TTITLE7=Wrong Side Of Bourbon St. Blues
TTITLE8=Ay´ee Lou´siana
TTITLE9=Jalopy Blues
TTITLE10=Country Music´s Gone To The city
TTITLE11=In The Hands Of God
EXTD=
EXTT0=
EXTT1=
EXTT2=
EXTT3=
EXTT4=
EXTT5=
EXTT6=
EXTT7=
EXTT8=
EXTT9=
EXTT10=
EXTT11=
PLAYORDER=
